<svg xmlns="http://www.w3.org/2000/svg">

    <symbol id="back" viewBox="0 0 109.3 185.6">
        <path d="M3,92.8C33.1,63.2,62.7,34,92.2,5c4.1,4.2,8.7,8.8,13.2,13.4C81.2,42.6,56.5,67.3,31.8,91.9c25.3,25.3,50.1,50,74.5,74.4
	c-5.3,5.3-10,10-14.2,14.3C62.8,151.7,33.2,122.6,3,92.8z"/>
    </symbol>

    <symbol id="basket" viewBox="0 0 362 340.7">
        <path class="st0" d="M96.2,250.3c2.6,0,4.4,0,6.2,0c69.3,0,138.7,0,208,0c20.9,0,38.5,15.4,40.4,35.4c2.1,21.7-11.9,40.6-33.2,44.1
		c-15.1,2.5-28.1-2.3-37.8-14.3c-9.7-12-11.4-25.5-6.2-40c0.6-1.5,1.3-3,2-4.9c-56.5,0-112.7,0-169.5,0c3.2,6.8,5,13.8,4.8,21.4
		c-0.5,20.7-18.4,38.2-39.7,38.2c-21.8,0-39.6-17.2-40.5-38c-1-24.5,19.9-43.1,40.5-41.9c2.4,0.1,3.5-0.7,4.4-2.9
		c4.7-12.1,9.5-24.1,14.2-36.2c0.6-1.4,0.8-2.8,0.6-4.4C85.5,159,80.4,111.2,75.3,63.3c-1-9.6-2.2-19.2-3-28.8
		c-0.3-3.4-1.3-4.3-4.7-4.3c-17.3,0.2-34.7,0-52,0.2c-3.7,0-5-0.8-4.7-4.6c0.4-4,0.2-8,0-12c-0.1-2.5,0.4-3.5,3.2-3.5
		c22.3,0.1,44.7,0,67,0.1c5.3,0,9.2,3.7,9.9,9.4c1.1,8.4,2.2,16.9,2.6,25.3c0.2,4.4,1.7,5.3,5.9,5.3c79.7-0.1,159.3-0.1,239-0.1
		c2.3,0,4.6-0.3,6.9,0.8c3.7,1.8,5.5,4.7,5.5,8.7c0,33.7,0,67.3,0,101c0,5.3-2.6,8.4-8.3,9.6c-23.4,5-46.9,9.9-70.3,14.8
		c-53.4,11.1-106.9,22.2-160.3,33.3c-2.7,0.6-4.2,1.7-5.2,4.4C103.5,231.9,99.9,240.8,96.2,250.3z M90.8,290.5
		c0.1-10.8-8.6-19.8-19.4-20.1c-11-0.2-20.2,8.7-20.3,19.6c-0.1,10.9,9,20.2,19.9,20.1C81.7,310.2,90.7,301.2,90.8,290.5z
		 M330.8,290.1c-0.1-10.7-9.1-19.6-19.8-19.6c-11,0-20,9.1-19.9,20.1c0.1,10.7,9.2,19.7,19.8,19.7
		C321.8,310.2,330.9,301,330.8,290.1z"/>
     </symbol>

    <symbol id="basketBlack" viewBox="0 0 354.5 334.2">
        <path d="M67.5,27.1c-20.2,0-40,0-60.2,0c0-6.7,0-13.1,0-19.9c1.3-0.1,2.7-0.3,4.1-0.3c21.5,0,43,0,64.5,0c6.8,0,10.5,3,11.4,9.9
	c1.1,8.1,1.8,16.2,2.6,24.3c0.2,1.8,0.5,3.6,0.7,5.7c2.4,0,4.3,0,6.3,0c79.2,0,158.3,0,237.5,0c9.9,0,12.5,2.6,12.5,12.3
	c0,32,0,64,0,96c0,8.4-2.1,11-10.2,12.7c-64.2,13.4-128.4,26.7-192.6,40.1c-12.1,2.5-24.1,5.1-36.2,7.5c-2.8,0.5-4.2,1.8-5.2,4.5
	c-3.3,8.8-6.7,17.6-10.4,27c2.8,0,4.8,0,6.7,0c69.2,0,138.3,0,207.5,0c20.4,0,38.1,15.2,40.2,34.5c2.3,21.8-10.7,40.8-31.5,45
	c-15.4,3.1-28.8-1.1-39.1-13.3c-10.3-12.1-12-25.9-6.9-40.8c0.5-1.5,1.2-3,1.9-4.9c-56.3,0-112.3,0-167.4,0c1.1,7.1,2.9,14.2,3,21.3
	c0.4,20.6-19.1,39.3-40.8,38.5c-21.2-0.8-38.6-17.7-39.5-38.6c-1-24.5,20.4-43,40.2-41.9c1.5,0.1,4-1.6,4.6-3.1
	c4.9-11.7,9.7-23.4,13.9-35.3c1.2-3.4,0.6-7.5,0.2-11.3C80.1,143.9,74.5,90.8,68.8,37.6C68.5,34.3,68,31,67.5,27.1z M86.5,286.8
	c-0.1-10.8-9-19.6-19.8-19.4c-10.6,0.1-19.2,8.8-19.3,19.4c-0.1,10.7,8.9,19.8,19.6,19.8C77.6,306.7,86.6,297.6,86.5,286.8z
	 M306.8,267.4c-10.8,0.1-19.5,9-19.3,19.9c0.2,10.5,9.1,19.3,19.5,19.4c10.6,0,19.6-9.1,19.6-19.8
	C326.5,276,317.6,267.3,306.8,267.4z"/>
    </symbol>

    <symbol id="card" viewBox="0 0 25.6 20.1">
        <path class="st0" d="M12.5,18.3c-2.4,0-4.9-0.1-7.3,0c-2,0.1-2.9-0.7-2.9-2.8c0.1-3.6,0.1-7.2,0-10.8c0-2,0.6-3,2.7-2.9
	c5.1,0.1,10.2,0.1,15.3,0c2.2,0,3,1,3,3.1c-0.1,3.4-0.1,6.8,0,10.2c0.1,2.3-0.9,3.3-3.2,3.2C17.5,18.2,15,18.3,12.5,18.3z"/>
        <path class="st1" d="M12.9,10c1.6,0,3.2,0,4.8,0c4.1,0,5.2,1.6,4.2,5.6c-0.3,1.2-1.2,1.3-2.2,1.3c-4.7,0-9.3,0-14,0
	c-3.4,0-1.8-2.7-2.1-4.3C3.3,11,3.8,9.9,6,10C8.3,10.2,10.6,10,12.9,10z"/>
        <path class="st2" d="M12.8,6.1c-2.4,0-4.9,0-7.3,0c-1,0-1.9-0.3-1.8-1.6c0.1-1.1,0.8-1.4,1.8-1.4c4.9,0,9.7,0,14.6,0
	c1.1,0,1.9,0.4,1.8,1.6c0,1.1-0.8,1.4-1.8,1.4C17.7,6.1,15.2,6.1,12.8,6.1z"/>
        <path class="st3" d="M11,15.7c-0.6-0.1-1.7,0.2-1.5-1c0.2-1,1.2-0.6,1.9-0.6c0.7,0,1.8-0.1,1.7,0.8C12.9,16,11.8,15.5,11,15.7z"/>
        <path class="st4" d="M7.9,14.8c-0.2,1-0.9,0.9-1.7,0.9c-0.7,0-1.4-0.2-1.3-0.9c0-1,0.9-0.9,1.6-0.9C7.3,13.9,7.8,14,7.9,14.8z"/>
    </symbol>

    <symbol id="phone" viewBox="0 0 237 237">
        <path class="st0" d="M55,6c3.3,1.5,5.7,4,7.3,7.2c8.3,15.8,16.8,31.4,24.9,47.3c2.8,5.5,1.9,11-2.3,15.7c-3.1,3.4-6.4,6.8-9.9,9.9
	c-3.3,3-3.8,6.1-2.2,10.1c4.3,10.8,10.8,20.2,18.5,28.7c12.1,13.3,24.6,26.2,40.5,35.1c0.9,0.5,1.7,1.1,2.6,1.5
	c10.6,5.5,11.5,5.4,19.9-3.2c2.3-2.4,4.6-4.8,7-7.1c5.6-5.2,12.6-6.2,19.2-2.3c14.9,8.6,29.7,17.4,44.4,26.3c2.2,1.3,4,3.3,6.1,5
	c0,3,0,6,0,9c-1.3,2.8-3.4,4.9-5.6,6.9C212.8,207.5,202.1,221,188,231c-8,0-16,0-24,0c0-0.7-0.4-1.2-1.2-1.4
	c-20-3.8-37.4-13.2-54.3-24c-23.5-14.9-43.1-34.4-60.9-55.4c-18.6-22-33.8-46-40-74.8C7.4,74.5,7.1,73.9,6,74c0-8.7,0-17.3,0-26
	c3.4-2.1,4.6-6,7.4-8.7c10.2-9.8,20.1-19.8,30-29.9c1-1,2.6-1.6,2.5-3.4C49,6,52,6,55,6z"/>
    </symbol>

    <symbol id="mail" viewBox="0 0 64 64">
        <path d="M64 25.357v28.357q0 2.357-1.679 4.036t-4.036 1.679h-52.571q-2.357 0-4.036-1.679t-1.679-4.036v-28.357q1.571 1.75 3.607 3.107 12.929 8.786 17.75 12.321 2.036 1.5 3.304 2.339t3.375 1.714 3.929 0.875h0.071q1.821 0 3.929-0.875t3.375-1.714 3.304-2.339q6.071-4.393 17.786-12.321 2.036-1.393 3.571-3.107zM64 14.857q0 2.821-1.75 5.393t-4.357 4.393q-13.429 9.321-16.714 11.607-0.357 0.25-1.518 1.089t-1.929 1.357-1.857 1.161-2.054 0.964-1.786 0.321h-0.071q-0.821 0-1.786-0.321t-2.054-0.964-1.857-1.161-1.929-1.357-1.518-1.089q-3.25-2.286-9.357-6.518t-7.321-5.089q-2.214-1.5-4.179-4.125t-1.964-4.875q0-2.786 1.482-4.643t4.232-1.857h52.571q2.321 0 4.018 1.679t1.696 4.036z"/>
    </symbol>

    <symbol id="enter" viewBox="0 0 334.3 337.9">
        <path d="M156.7,325.7c-1.9-2.1-4.1-4-5.7-6.3c-4.2-6.2-1-14.3,6.2-16.2c2.3-0.6,4.9-0.9,7.3-0.9c42.8,0,85.7-0.1,128.5,0.1
		c4.5,0,5.8-1.4,5.8-5.8c-0.1-85.2-0.1-170.5,0-255.6c0-4.5-1.5-5.8-5.8-5.7c-42.3,0.2-84.8,0.1-127.1,0.1c-5.3,0-10.9,0.5-14.7-4.8
		c-3.9-5.5-2.6-12.6,3.2-16.2c0.8-0.6,1.5-1.5,2.2-2.2c50.1,0,100.3,0,150.4,0c2.1,1.3,4.4,2.6,6.4,4c7.1,4.9,8.8,12.2,8.8,20.2
		c0,88.3,0,176.6,0,264.8c0,1.4,0.1,2.8-0.1,4.2c-0.8,8.5-4,15.4-12.9,18.4c-0.8,0.3-1.5,1.4-2.2,2.1
		C256.9,325.7,206.8,325.7,156.7,325.7z"/>
        <path d="M74.9,105.9c12.3,0,24.4,0,36.7,0c5.4,0,5.8-0.6,6-6.1c0.3-7.5,0.4-14.9,5.2-21.6c10.7-14.9,30.7-18.5,45.1-5.4
		c27,24.4,53.8,49.1,80.9,73.5c12.9,11.7,13.6,32.7,0.3,44.7c-20.8,18.8-41.5,38-62.2,56.9c-6.9,6.2-13.6,12.5-20.7,18.5
		c-14.9,12.3-36,6.7-44.7-8.9c-3.3-5.9-3.5-12.3-3.6-18.8c-0.1-5.9-0.7-6.7-6.7-6.7c-22.1,0-44.3-0.1-66.4,0
		c-11,0.1-20.1-3.3-27-12.3c-4.1-5.5-5.7-11.6-5.7-18.1c-0.1-21.8,0-43.6,0-65.5c0-11.8,5.1-21,15.5-26.5c4.2-2.2,9.3-3.3,14-3.6
		C52.5,105.5,63.7,105.9,74.9,105.9L74.9,105.9z M87.9,208.9C87.9,208.9,87.9,209,87.9,208.9c14.9,0,29.7,0,44.6,0
		c6,0,8.4,2.4,8.4,8.4c0.1,7.9,0.1,15.8,0,23.7c-0.1,3.7,1.3,6.2,4.5,7.8c3.2,1.7,5.7-0.1,7.9-2c26-23.5,52-47.1,77.9-70.6
		c6.2-5.7,6-9.3-0.1-14.9c-10.8-9.7-21.5-19.5-32.2-29.2c-14.7-13.5-29.3-26.9-44-40.4c-2.9-2.6-6.1-4.5-10-2.8
		c-3.7,1.7-3.9,5.1-3.8,8.6c0.1,7.7,0.1,15.5,0,23.2c0,4.9-2.1,7.1-6.9,7.4c-1.7,0.1-3.4,0.1-5.1,0.1c-28.1,0-56.3,0-84.5,0.1
		c-6.4,0-9,2.7-9,9c0,20.9,0,41.8,0,62.7c0,6.7,2.1,8.8,8.9,8.8C58.7,209,73.3,208.9,87.9,208.9z"/>
    </symbol>

    <symbol id="heart" viewBox="0 0 393 313.4">
        <path d="M196.4,304.4c-20.8-33.5-50.9-57.6-84.8-77.6c-19.9-11.7-39.9-23.5-58.9-36.5c-17.3-11.9-30.4-27.8-37.1-48.2
	c-5.5-16.8-5-33.8-2.1-50.8c2.9-17.1,9.2-32.9,19.7-46.9c21.5-28.5,57.1-41.1,91.2-32.9c28.8,6.9,49.3,24.4,64.5,49
	c2.4,3.9,4.6,8,7.4,12.8c1.3-1.9,2.3-3.3,3.1-4.7c12.9-24.4,31.4-43.1,57.7-52.5c48.9-17.5,100.2,5.3,118,57
	c6.2,17.8,8.2,36.3,5.5,55.1c-2.9,20.4-13.2,36.6-27.9,50.5c-15.4,14.7-33.6,25.5-52,35.8c-32,18-61.5,39.1-86,66.6
	C208,288.4,202.4,296.7,196.4,304.4z"/>
    </symbol>

    <symbol id="compare" viewBox="0 0 532.6 407.7">
        <path d="M11.8,74c127.5,0,254.9,0,382.8,0c0-21.4,0-42.5,0-64.9c3.7,2.2,6.7,3.7,9.3,5.7c21.7,15.6,43.4,31.4,65.1,47
		c14.7,10.6,29.5,21,44.4,31.3c4,2.8,1.8,4.1-0.7,5.9c-10.7,7.5-21.4,14.9-31.9,22.5c-19.5,14-38.9,28.2-58.3,42.3
		c-7.4,5.4-14.8,10.8-22.2,16.1c-1.4,1-3.1,1.6-5.3,2.8c0-22,0-43,0-63.7c-128.1,0-255.6,0-383.2,0C11.8,104,11.8,89,11.8,74z"/>
        <path d="M520.8,333.7c-127.5,0-254.9,0-382.8,0c0,21.4,0,42.5,0,64.9c-3.7-2.2-6.7-3.7-9.3-5.7c-21.7-15.6-43.4-31.4-65.1-47
		c-14.7-10.6-29.5-21-44.4-31.3c-4-2.8-1.8-4.1,0.7-5.9c10.7-7.5,21.4-14.9,31.9-22.5c19.5-14,38.9-28.2,58.3-42.3
		c7.4-5.4,14.8-10.8,22.2-16.1c1.4-1,3-1.6,5.3-2.8c0,22,0,43,0,63.7c128.1,0,255.6,0,383.2,0C520.8,303.7,520.8,318.7,520.8,333.7z
		"/>
    </symbol>

    <symbol id="vk" viewBox="0 0 649.4 369.8">
        <path d="M637.7,33.8c0,3,0,6,0,9c-2.6,6.8-4.8,13.8-8,20.3c-11.7,24.1-27.5,45.4-43.4,66.8c-14.7,19.7-29.5,39.4-43.8,59.4
		c-10.6,14.8-9.3,26.6,3.6,39.7c18.7,18.9,38.1,37.2,56.2,56.6c15.2,16.3,30.8,32.9,35.4,56.1c0,0.7,0,1.3,0,2
		c-4.1,12-9.9,16.5-22.5,17c-14,0.6-28,0.8-41.9,1.1c-17.5,0.4-35,1.5-52.4,1.1c-18.9-0.5-34.7-9.2-47.8-22.2
		c-12.2-12-23.3-25.1-34.9-37.7c-7.8-8.5-15.5-17-26.2-22c-5.7-2.7-11-2.4-16.2,1.8c-8.1,6.5-12.8,15.1-14.6,24.8
		c-1.9,9.8-2.8,19.7-3.3,29.7c-0.9,16.5-8.1,23.4-24.4,23.8c-12.3,0.3-24.7-0.2-37,0.1c-34.1,0.8-65.4-8.8-94.4-26.1
		c-21.8-13-43.2-26.8-59.9-46c-16.1-18.6-31.6-37.8-45.6-58c-16.6-24-32.2-48.9-46.6-74.3c-15.1-26.6-28.3-54.2-42.1-81.5
		C22,64.2,17,52.4,11.7,40.8c0-3,0-6,0-9c4.6-7.1,11.6-8.9,19.4-9c29.3-0.3,58.6-0.9,88-0.7c11.6,0.1,20.7,5.5,25.3,17
		c1.9,5,3.9,9.9,6.3,14.7c12.5,25.2,24.9,50.4,38,75.3c7.9,15,16.6,29.8,29.4,41.3c4.7,4.2,10.4,7.7,16.2,10.2
		c5.7,2.4,11-0.7,14.2-5.8c5.6-9.1,6.6-19.4,7.9-29.6c3.4-25.9,3.7-51.8-0.7-77.7c-1.7-10.1-3-21.1-12.8-27.2
		c-5.8-3.6-12.5-5.8-19.1-8.1c-4.7-1.6-5.9-3.3-2.3-6.6c5.3-4.8,11-10.2,17.5-12.6c8.4-3.1,17.8-4.3,26.8-5
		c13.9-1.1,28-1.7,41.9-1.3c15.9,0.5,31.9,1.7,47.7,3.7c10.8,1.3,19.1,7.1,21,18.9c1.2,7.2,2.5,14.5,2.4,21.7
		c-0.4,30.5-1.7,61-1.9,91.4c-0.1,8.7,1.3,17.7,4,26c3.8,11.8,15.1,16,24.4,6.3c4.5-4.7,9.8-8.6,13.9-13.6
		c21.6-26.8,38.9-56.4,53.7-87.4c5.8-12.2,10.8-24.7,16.1-37.1c4.1-9.5,9.7-13.6,18.8-13.6c14.8,0,29.7,0.1,44.5-0.1
		c20.5-0.2,41-1,61.4-0.8C623.1,22.4,633,23.2,637.7,33.8z"/>
    </symbol>

    <symbol id="face" viewBox="0 0 517.6 984.7">
        <path d="M308.9,967.3c-67,0-133.3,0-200.1,0c0-149.9,0-299.7,0-449.8c-33.4,0-66.4,0-99.7,0c0-50.1,0-99.8,0-149.8
		c33.2,0,66.4,0,100.2,0c0-1.6,0-3,0-4.5c0-39.6-0.3-79.2,0.1-118.9c0.2-19.6,1.1-39.2,3.2-58.7c3.2-30.4,11.4-59.5,27.2-86
		c20.6-34.3,51.1-55.7,88.6-67.9c30.7-10,62.4-13.6,94.5-13.8c61-0.4,122-0.4,183-0.5c0.7,0,1.5,0.1,2.4,0.1c0,50,0,99.7,0,149.9
		c-1.6,0-3.1,0-4.6,0c-42.7,0-85.5-0.2-128.2,0.2c-10.5,0.1-21.2,1.3-31.5,3.6c-20.6,4.6-31.2,16.8-33.6,37.9
		c-1.2,10.1-1.7,20.4-1.7,30.6c-0.2,41.2-0.1,82.5-0.1,123.7c0,1.1,0,2.2,0,3.9c58.4,0,116.6,0,174.9,0c-8.4,50.2-16.7,99.9-25,150
		c-49.9,0-99.7,0-149.9,0C308.9,667.5,308.9,817.1,308.9,967.3z"/>
    </symbol>

    <symbol id="twit" viewBox="0 0 352 352">
        <path d="M7,319c0-95.3,0-190.7,0-286c0.8-0.9,2.1-1.7,2.4-2.7c2.3-8.2,7.3-14.1,14.7-18.2c3-1.7,6-3.4,8.9-5.1c95.3,0,190.7,0,286,0
	c1.1,0.9,2,2.1,3.2,2.5c10.2,3.4,16.9,10.1,20.3,20.3c0.4,1.2,1.6,2.1,2.5,3.2c0,95.3,0,190.7,0,286c-0.8,0.9-2.1,1.6-2.4,2.7
	c-2.4,8.4-7.5,14.4-15.1,18.5c-2.9,1.5-5.7,3.2-8.5,4.8c-95.3,0-190.7,0-286,0c-0.9-0.8-1.7-2.1-2.7-2.4
	c-8.2-2.4-14.2-7.3-18.2-14.7C10.4,324.9,8.7,322,7,319z M272.7,113.1c-0.2-0.5-0.3-1-0.5-1.5c4.5-6.3,11.9-11,12.3-21
	c-7.5,2.8-14.1,5-20.6,7.7c-3.9,1.6-7,1.6-9.8-1.8c-11.7-13.6-35.9-13.1-49.1-6.7c-18.7,9.1-29.3,23.5-26.4,45.4
	c0.4,3.1-0.4,4.9-4,4.1c-8.7-1.8-17.5-3.3-26.1-5.3c-13.4-3.2-25.2-9.9-36-18.1c-8.8-6.7-17-14.2-26.3-22.1
	c-1.5,3.5-3.6,6.9-4.2,10.6c-3.1,18,1.9,33.9,13.7,48.2c-3.8-0.3-7.2-0.8-10.3-2.1c-3.3-1.4-4.5-0.4-4,2.9c0.4,2.6,1.5,5.1,2,7.7
	c2.2,11.1,7.8,19.9,17.6,25.9c3.6,2.2,7.3,4.1,10.9,6.2c0,0.5,0,1,0,1.5c-3,0-5.9,0.1-8.9,0c-3.8-0.2-4.6,1.5-3.1,4.5
	c5.6,11.6,13.6,20.8,26.5,24.7c4,1.2,8.1,2.2,13.1,3.6c-18.8,14-39.3,19.2-61.9,18.2c1.2,1.8,2.3,3,3.7,3.8
	c13.8,7.8,28.4,13.6,44,15.7c19.8,2.6,39.6,0.6,58.6-5.5c15.2-4.8,29.2-12.3,41.6-22.6c19.6-16.3,32.3-37.1,40.1-61
	c4.1-12.7,5.9-25.9,6.7-39.1c0.3-4.8,2.1-8,5.6-11c3.9-3.4,7.3-7.3,10.7-11.1c0.8-0.9,0.7-2.7,1.1-4.1c-1.4-0.2-2.8-0.6-4.2-0.4
	c-1.3,0.2-2.4,1.2-3.7,1.4C278.7,112.2,275.7,112.6,272.7,113.1z"/>
    </symbol>

    <symbol id="search" viewBox="0 0 354 354">
        <path class="st0" d="M346,309c0,5.7,0,11.3,0,17c-0.7-0.1-1.3,0.2-1.6,0.8c-3.2,8.5-8.9,14.4-17.5,17.6c-0.4,0.2-0.6,1-0.9,1.6
	c-5.7,0-11.3,0-17,0c0.1-1-0.5-1.6-1.4-1.8c-6.6-1.4-11.8-5.3-16.4-9.8c-11.9-11.4-23.4-23.1-35.1-34.7
	c-11.5-11.5-23-23.1-34.6-34.5c-2-2-4-4.5-7.7-2.4c-9.3,5.3-19,9.7-29.2,13.1c-12.6,4.2-25.6,6.5-38.6,6.7
	c-17.6,0.3-34.7-3-51.3-9.6c-14.7-5.9-27.8-14.1-39.9-24.2c-14.3-12-25.2-26.8-33.4-43.4c-4-8-7-16.5-9.2-25.4
	C11,174.7,11,168.9,8,164c0-12,0-24,0-36c0.7-0.2,0.9-0.8,1-1.5c1.8-14.5,5.9-28.4,12.3-41.4c10-20.3,24-37.5,42.5-50.9
	c14.4-10.3,29.9-17.9,47.3-22.1C116,11,121.6,11.5,126,8c12.3,0,24.7,0,37,0c1.5,1.8,3.5,2,5.7,2.1c8.8,0.4,17,3.6,25.2,6.5
	c10.2,3.6,19.6,8.9,28.7,14.7c0.8,0.6,1.6,1.2,2.4,1.8c1.7,1.2,3.4,2.5,5.1,3.7c0.7,0.6,1.4,1.1,2.1,1.7c11.3,9.5,21,20.5,29.1,32.9
	c7.2,11.1,12.4,23.2,16.4,35.8c2.6,8.1,3.1,16.6,4.4,24.9c2.6,17-0.8,33.5-4.9,49.7c-2.7,10.7-7.3,20.9-13.1,30.3
	c-2.9,4.7-1,7.1,2.1,10.1c19.9,19.8,39.7,39.7,59.5,59.6c7.9,7.9,16.1,15.4,19.2,26.7C344.8,308.8,345.6,308.9,346,309z
	 M144.9,245.6c54.3,1.4,100.9-44.6,101-100C246,90.1,201.5,44.5,145.6,44.3C89.9,44.1,44.5,88.1,44.2,144.9
	C44,199.4,87.8,246.2,144.9,245.6z"/>
    </symbol>

    <symbol id="credit-card" viewBox="0 0 69 64">
        <path d="M62.857 4.571q2.357 0 4.036 1.679t1.679 4.036v43.429q0 2.357-1.679 4.036t-4.036 1.679h-57.143q-2.357 0-4.036-1.679t-1.679-4.036v-43.429q0-2.357 1.679-4.036t4.036-1.679h57.143zM5.714 9.143q-0.464 0-0.804 0.339t-0.339 0.804v8h59.429v-8q0-0.464-0.339-0.804t-0.804-0.339h-57.143zM62.857 54.857q0.464 0 0.804-0.339t0.339-0.804v-21.714h-59.429v21.714q0 0.464 0.339 0.804t0.804 0.339h57.143zM9.143 50.286v-4.571h9.143v4.571h-9.143zM22.857 50.286v-4.571h13.714v4.571h-13.714z"/>
    </symbol>

    <symbol id="like" viewBox="0 0 528 528">
        <path class="st0" d="M411,520c-41.3,0-82.7,0-124,0c-0.7-1.7-2.3-1-3.5-1.1c-14.6-1.4-29.1-2.9-43.6-5.5c-30-5.3-59.4-13-89-20
		c-3.1-0.7-4.6-0.4-6.3,2.6c-6.6,11.5-16.4,19-29.2,22.7c-1.5,0.4-3.4-0.3-4.5,1.4c-21.3,0-42.7,0-64,0c-0.4-1.5-1.9-1.2-2.9-1.5
		c-18-5.1-29.4-16.7-34.7-34.6c-0.3-1,0.1-2.5-1.5-2.9c0-91.3,0-182.7,0-274c1.5-0.4,1.2-1.9,1.5-2.9c7-23,24.5-36.1,48.6-36.1
		c13.7,0,27.3,0.3,41-0.1c12.7-0.4,24,3,34.1,10.6c1.3,1,2.2,1.5,3.9,0.7c22.4-10,42.3-23.2,56.1-44.1c15.8-24,22.2-50.6,22.8-79
		c0.5-22,14.1-40,35.2-46.3c1.3-0.4,3.1-0.1,3.8-1.8c5.3,0,10.7,0,16,0c9.2,2.8,18,6.2,25.8,12.1c20,15.1,32.7,35.2,40.2,58.8
		c9,28.4,6.7,57.3,2.5,86.1c-0.4,3.1,0.1,3.8,3,3.8c5.3-0.1,10.7,0.1,16,0.3c33.6,1.1,67.3,0.9,100.9,4c20,1.8,36.9,9.3,49.5,25.5
		c5.7,7.3,8.5,15.9,11.2,24.6c0,8,0,16,0,24c-1.1,0.3-1,1.2-1.1,2c-1.2,6.8-2.7,13.7-7,19c-4.9,6.1-4.4,11.3-2.2,18.6
		c7.9,25.8,0.5,48.8-16,69.3c-1.3,1.6-3.2,2.5-2.2,5.4c5.1,13.9,3.3,27.9-0.9,41.6c-4.7,15.3-10.9,29.7-24.5,39.5
		c-1.8,1.3-1.4,2.9-1.1,4.5c2.2,10.8,0.6,21.1-3.1,31.3c-6.9,19-19.1,32.4-38.7,38.7C419.2,518.2,414.9,518.1,411,520z M296.6,200.2
		c-0.1-0.7-0.3-1.1-0.2-1.3c0.4-1.3,0.8-2.5,1.3-3.8c9.4-25.1,14-50.9,13.3-77.7c-0.6-21.1-6.4-40.3-18.9-57.3
		c-5.5-7.5-11.8-14-20.4-18c-11.9-5.6-23.5,1.6-23.7,14.8c-0.3,14-1.8,27.9-5,41.6c-12.4,52.2-42.8,89.2-92.9,109.5
		c-10.7,4.3-14.1,8.7-14.1,20.2c0,71.5,0,143,0.1,214.5c0,10.7,3.1,14.9,13.8,17.6c18.5,4.6,37.2,9,55.7,13.5
		c34.4,8.4,69.2,14.1,104.6,14.4c30,0.2,60,0.1,90,0c19.1,0,27.5-6.4,33-24.7c3.9-13.1-3.4-23.1-17-23.2c-8-0.1-16,0.1-24-0.1
		c-5-0.1-8.3-3.5-8.2-8.2c0.1-4.4,3.3-7.5,8.1-7.8c1.7-0.1,3.3,0,5,0c11.3-0.3,22.7,0.8,33.9-0.9c9.6-1.5,18.1-4.9,23-14
		c4.8-9,7.9-18.7,8.6-29c0.6-10.3-4.8-17.1-14.9-19.3c-3-0.6-5.9-0.8-8.9-0.8c-9.7,0-19.3,0-29,0c-5.9,0-9.5-2.9-9.7-7.8
		c-0.2-5,3.6-8.2,9.7-8.2c12,0,24,0,36,0c16-0.1,26.4-7.4,31.9-22.4c1.6-4.4,2.7-9,3.2-13.6c1.8-14.4-6.8-25.7-21-27.8
		c-1.8-0.3-3.7-0.3-5.5-0.3c-9.3,0-18.7,0-28,0c-6.6,0-10.4-3-10.3-8.1c0.1-5.1,3.8-7.9,10.6-7.9c4.8,0,9.7,0.1,14.5,0
		c8.6-0.2,17.3,0.8,25.9-1c9.2-1.9,16.8-6,19.5-15.7c2.1-7.6,2.4-15.5,0.7-23.2c-1.7-7.7-6.3-13.1-13.5-16.3
		c-6.1-2.7-12.6-4.2-19.3-4.8c-28.2-2.8-56.6-2.4-84.9-2.7C345.2,199.9,320.9,200.2,296.6,200.2z M120,344c0-41.8,0-83.6,0-125.4
		c0-12.3-6.1-18.5-18.3-18.5c-14.5,0-29,0-43.5,0c-12,0-18.2,6.2-18.2,18.1c0,84,0,167.9,0,251.9c0,11.8,6.3,18,18.3,18
		c14.3,0,28.6,0,43,0c12.7,0,18.7-6,18.7-18.6C120,427.6,120,385.8,120,344z"/>
        <path class="st1" d="M79.9,424c13.1,0,24,10.6,24.1,23.6C104.2,461,93.4,472,80.1,472c-13.3,0-24.2-10.9-24.1-24.1
		C56.1,434.8,66.8,424.1,79.9,424z M88,448.2c0.1-4.3-3.3-8-7.6-8.2c-4.3-0.2-8.1,3.2-8.3,7.5c-0.3,4.5,3.4,8.4,7.9,8.5
		C84.2,456.1,87.9,452.5,88,448.2z"/>
    </symbol>

    <symbol id="gift" viewBox="0 0 574 650.8">
        <path class="st0" d="M432,12.4c8.3,0,16.7,0,25,0c0.7,1.3,2,0.8,3.1,1c22.9,4.4,40.6,16.2,51.3,37.2c10.8,21.2,10.9,43.5,4.4,65.9
		c-10.5,36.4-34.7,62.4-64.7,83.9c-1,0.2-2.1,0.4-2.2,1.6c-0.1,1.4,1.2,1.4,2.1,1.4c1.3,0.1,2.7,0.1,4,0.1c33.6,0,67.3,0,100.9,0
		c7.2,0,7.2,0,7.2,7.1c0,49.9,0,99.9,0,149.8c-10.5,0-21,0-31.5,0.1c-7.5,0-7.6,0-7.6,7.5c0,90.1,0,180.3,0,270.4
		c-158,0-316,0-474,0c0-44.8,0-89.6,0-134.5c0-45.3,0-90.6,0-136c0-7.4,0-7.4-7.6-7.4c-10.5,0-21,0-31.5-0.1c0-49.8,0-99.5,0-149.3
		c0-7.7,0-7.7,7.6-7.7c40.1,0,80.2,0,120.3,0c1.3,0,3.5,0.9,3.8-1.1c0.3-1.4-1.6-1.8-3-2c-9.9-4.9-18.6-11.5-27.1-18.4
		c-19.7-16-34.6-35.3-40.1-60.7C66.8,95.1,70.8,71,89.3,50.7c11.4-12.4,25.6-19.8,42.6-21.4c7.7,0,15.4,0,23,0c2,0.2,4,0.3,5.9,0.7
		c28.2,5.6,48.9,22.4,65.9,44.4c21.4,27.7,35,59.3,45,92.6c2.1,7,3.9,14,6.2,22.1c3-8.3,5.6-15.4,8.3-22.6
		c14.9-39.5,34.6-76.2,63.3-107.6c18.7-20.4,40.4-35.9,67.6-43C422.1,14.8,427.1,13.6,432,12.4z M50.2,321.6
		c1.8,1.1,3.9,0.7,5.9,0.7c61.6,0,123.3,0,184.9,0c2,0,4,0.3,5.9-0.8c1.3-1.8,1-3.8,1-5.8c0-22.5-0.1-45,0.1-67.4
		c0-4.9-1.6-6.2-6.3-6.2c-62.1,0.1-124.2,0.1-186.3,0c-4.8,0-6.3,1.4-6.3,6.2c0.2,22.5,0.1,45,0.1,67.4
		C49.2,317.9,48.9,319.9,50.2,321.6z M327.1,321.1c1.6,1.7,3.7,1.2,5.7,1.2c61.9,0,123.7,0,185.6,0c2,0,4,0.4,5.7-1.2
		c0.1-1.5,0.1-3,0.2-4.4c1.1-1.3,0.8-2.8,0.8-4.3c0-21.4,0-42.7,0-64.1c0-1.5,0.3-3-0.8-4.3c-1.6-1.8-3.7-1.1-5.6-1.1
		c-16-0.1-32,0-47.9,0c-45.9,0-91.9,0.1-137.8-0.1c-4.5,0-5.9,1.2-5.9,5.8C327.1,272.8,327,297,327.1,321.1z M247,470.1
		c0-41-0.1-82,0.1-122.9c0-4.4-1.3-5.6-5.6-5.6c-49,0.2-97.9,0.2-146.9,0c-4.6,0-5.5,1.5-5.5,5.7c0.1,81.6,0.1,163.2,0,244.9
		c0,5.2,1.5,6.3,6.4,6.3c48.5-0.2,96.9-0.2,145.4,0c5.4,0,6.2-1.8,6.2-6.5C247,551.4,247,510.8,247,470.1z M327,469.9
		c0,41,0.1,82-0.1,123c0,4.4,1.1,5.6,5.5,5.6c49-0.2,98-0.1,147,0c4,0,5.5-1,5.4-5.3c-0.1-82.2-0.1-164.3,0-246.5
		c0-3.9-1.1-5.1-5-5.1c-49,0.1-98,0.1-147-0.1c-5,0-6,1.7-5.9,6.3C327,388.6,327,429.2,327,469.9z M340.3,202.5
		c8.5,2,17.6-2.2,26.8-6.2c27.7-11.8,53.5-26.8,75.7-47.4c16.7-15.6,29.2-33.7,31.7-57.1c2.2-20.4-8.5-34.3-29.4-34.4
		c-14.4-0.1-27,5.1-38.8,12.4c-17.4,10.8-30.3,26.4-41.8,42.9c-18.5,26.5-31.5,55.8-41.7,86.3c-1,3.1,0.1,3.5,2.6,3.4
		C329.7,202.4,334,202.5,340.3,202.5z M231.2,189.1c-1.3-4.3-2.2-7.6-3.2-10.9c-7.8-25.5-18-50-33.8-71.8
		c-11.6-15.9-25-29.2-45.7-32.7c-19.7-3.4-35.8,11.8-33,31.6c2.2,15.5,9.9,27.6,21.3,37.7c16.5,14.6,35.5,25,55.8,33.3
		C204.8,181.4,217.3,185.8,231.2,189.1z"/>
        <path class="st1" d="M131.9,29.4c7.7-1.6,15.4-1.7,23,0C147.3,29.4,139.6,29.4,131.9,29.4z"/>
    </symbol>

    <symbol id="flash" viewBox="0 0 306.7 643.1">
        <path d="M209,11.5c-5.2,14.4-10.6,28.7-15.6,43.1c-14.1,40-28.1,80.1-42.1,120.1c-0.4,1-0.5,2.2-1,4.2
	c50.3-13.1,99.9-26.1,150.9-39.4C225.4,304.3,150,467.9,74.6,631.6c-0.4-0.1-0.8-0.2-1.2-0.4C100.8,511.1,128.2,391,156,269.7
	c-50.6,13.8-100.3,27.3-150.5,41c0.1-1.5,0-2.4,0.2-3.3C18.8,253.7,31.9,200,45,146.3c6.5-26.9,13.1-53.7,19.3-80.6
	c4.2-18,7.8-36.1,11.7-54.2C120.3,11.5,164.7,11.5,209,11.5z"/>
    </symbol>

    <symbol id="logo" viewBox="0 0 1098.7 633.5">
        <path class="st0" d="M607.3,450.5c10.9-24.5,23.3-48.2,36.2-71.7c23.4-42.8,49.2-84.2,77.8-123.8c1-1.4,2.6-2.6,2.3-4.7
		c-5.7,1.8-41.8,52.2-67.8,94c-20.5,33-39.2,67.1-56.8,103.3c-3.9-21.8-5.4-42.2-4.9-62.8c1.4-56.6,20.7-106.8,54.5-151.7
		c28.7-38.2,64.6-68.7,104.1-95.1c24.8-16.6,50.7-31.2,77.3-44.7c3.7-1.9,4.8-1.3,6.1,2.5c12.1,37,9.9,73.5-3.3,109.7
		c-11.8,32.4-29.5,61.5-51.1,88.2c-17.6,21.7-36.2,42.6-56.8,61.6c-10.5,9.7-21.4,19-32.1,28.6c-26.2,23.6-54.3,44.5-82.6,65.3
		C609.3,449.6,608.6,450.8,607.3,450.5L607.3,450.5z M732.7,239c0.3-0.4,0.6-0.8,0.8-1.3c0.5-0.6,1-1.2,1.4-1.8
		c0.3-0.5,0.9-1.1,0-1.5c-0.2-0.1-0.6,0.6-1,0.9c-0.5,0.6-1,1.1-1.5,1.7c-0.3,0.3-0.6,0.7-0.8,1c-0.3,0.5-1,0.9-0.4,1.5
		C732,240.2,732.3,239.5,732.7,239z M737.4,232.7c0.7-0.4,1.6-1.3,1.1-1.7c-1.1-1-1.4,0.5-1.9,1.1c-0.3,0.5-1,1-0.1,1.5
		C736.6,233.6,737.1,233,737.4,232.7z M726.6,247c-0.1-0.2-0.4-0.9-0.6-0.9c-1.1,0-1.7,0.7-2,1.7c-0.1,0.3,0.3,1.1,0.5,1.1
		C725.6,249,726.2,248.2,726.6,247z"/>
        <path class="st0" d="M376,228.8c7.9,22.5,17.4,44.3,27.3,65.9c24.3,52.9,52.9,103.3,85.3,151.7c1,1.5,2,3,3.4,5.2
		c-8.7-2.6-16.2-5.9-23.7-9.3c-30.6-13.8-58.4-32.1-81.8-56.2c-23.7-24.4-41.9-52.6-55.2-83.9c-11.8-27.8-19.4-56.8-24.7-86.4
		c-2.8-15.4-4.2-31.1-5.4-46.8c-2.2-30.1-2-60.2-0.6-90.4c0.4-9.3,0.4-9.3,9.7-7.1c15.8,3.7,30.9,9.5,44.6,18.2
		c6.9,4.4,13.3,9.7,19.8,14.7c35.7,27.9,56.4,66.3,73.5,107c17.1,40.8,27.8,83.6,36.1,126.9c6.6,34.2,11.1,68.6,14.9,103.2
		c0.2,1.4,0,2.9,0,5.6c-7.2-10.7-14-20.5-20.5-30.5c-25.8-39.3-49.5-79.8-70.7-121.8c-11.1-22-21.3-44.3-31.1-66.9
		c-0.7-1.6-1.4-3.2-2.1-4.9c-1.6-4.1-3.2-8.2-4.8-12.3c0.3,4.7,1.9,8.9,4.1,12.9C374.2,225.5,374.9,227.2,376,228.8z"/>
        <path class="st1" d="M859.8,369.9c-19.7,7.1-39,15.4-58.1,24c-54.4,24.6-106.2,53.8-155.8,87c-1.8,1.2-3.6,2.4-5.4,3.6
		c-1-1.9,0.2-3.2,0.7-4.5c31.2-83.1,89.7-137.7,173.6-165.5c33.8-11.2,68.6-17.2,104.1-20.1c32.6-2.6,65.2-2.3,97.9-0.8
		c4.8,0.2,4.8,2.1,4,5.8c-7.5,35.7-26.1,64.8-52.9,89.1c-20.7,18.8-44.6,32.3-69.6,44.4c-36.1,17.5-74.2,28.7-113.1,37.7
		c-37.9,8.8-76.3,15-115,19.3c-8.4,0.9-16.8,1.9-25.5,2.1c2-1.4,4-2.8,5.9-4.1c34.5-23.9,70.1-46,106.9-66.2
		c32.8-18.1,66.3-34.7,100.8-49.3c0.8-0.3,1.5-0.8,2.2-1.2c1.7-0.5,3.5-0.9,4.9-2.2c4-1,7.8-2.7,11.2-5.3c-3.9,1.5-7.9,3-11.8,4.6
		C863.1,368.6,861.5,369.2,859.8,369.9z M878.9,363.3c0.2-0.1,0.5-0.2,0.8-0.3c-0.1-0.1-0.2-0.3-0.4-0.3c-0.3,0-0.6,0.1-0.9,0.2
		C878.6,363.1,878.7,363.2,878.9,363.3z"/>
        <path class="st0" d="M457.2,483.6c-16.7-7-32.8-15.5-48.8-23.9c-45.4-23.6-89.2-49.8-131.1-79.2c-6.9-4.8-13.8-9.8-20.7-14.6
		c-1.1-0.8-2.5-2.7-3.7-1.2c-1.2,1.5,1,2.5,2.1,3.3c14.6,11.6,29.5,22.8,44.8,33.5c47.7,33.7,97.9,63.1,150.3,88.8
		c0.9,0.4,1.8,0.9,3.3,1.6c-4.6,1.6-8.8,1.9-12.9,2.4c-4.1,0.5-8.2,1.2-12.4,1.6c-42.3,4-83.4-0.9-123-16.6
		c-34-13.5-63.8-33.5-90.5-58.3c-27.7-25.6-51.2-54.7-71.8-86.2c-15.7-23.9-29.8-48.8-42.5-74.5c-1.3-2.5-1.3-3.5,1.6-4.4
		c12.4-3.8,24.9-6.5,38-7.5c54.7-4.4,100,18.4,143,48.1c15.1,10.5,29.4,22.1,43,34.5c31.3,28.5,59.8,59.6,86.3,92.6
		C427.8,443.3,443.1,462.9,457.2,483.6L457.2,483.6z M241.8,357.1c0.4,0.3,0.7,0.5,1.1,0.8c1.1,1.5,2.3,3.1,4.9,3
		c-0.5-2.7-2.4-3.2-4.1-4.1c-0.3-0.2-0.7-0.5-1-0.7c-0.4-0.3-0.8-0.6-1.2-0.9c-0.3-0.8-1-1.2-1.8-1.4c-0.3-0.2-0.6-0.5-0.9-0.7
		c-3.3-3.1-6.6-6.4-11.3-7.4c3,3.3,5.6,7.2,10.4,8.2c0.4,0.3,0.7,0.7,1.1,1c0.3,0.9,0.9,1.3,1.7,1.5
		C241.1,356.6,241.5,356.8,241.8,357.1z M249.6,361.2c-0.3-0.6-0.8-1.1-1.5-0.6c-0.2,0.1,0.1,0.8,0.1,1.2c0.4,0.6,0.8,1.4,1.4,1.9
		c0.8,0.7,1.8,1.9,2.8,0.9c1.1-1.2-0.3-1.9-1.1-2.6C250.8,361.6,250.2,361.5,249.6,361.2z"/>
        <path class="st1" d="M176.2,532.7c87.7,16.5,176,19.9,266.1,13.6c-5.3,5.5-10.6,9.2-15.7,13c-35.4,26.4-74.7,44.1-118.5,50.8
		c-29.5,4.5-59.1,3.9-88.6-1c-59.4-9.8-113.3-33.9-164.9-64c-11.6-6.8-22.8-14.3-34.4-21.3c-3.6-2.2-4.4-3.5-1.1-7.1
		c23.9-26.6,53.8-42.6,88.3-50.3c34.1-7.6,68.5-7,102.9-2.5c63,8.4,122.7,28.2,181.3,51.9c15.9,6.4,31.5,13.5,47.2,20.3
		c0.8,0.3,2.1,0.1,2.1,2C352.5,545.4,264.2,544.6,176.2,532.7z"/>
        <path class="st0" d="M553.5,435.2c-3.7-42.8-5.1-84.3-4.6-125.8c0.4-41.3,3.2-82.5,8.1-124.4c-4.2,6.5-8.9,45.7-11.7,81.4
		c-2.2,27.7-2.9,55.4-3.1,83.1c-0.2,28.2,0.9,56.3,2.8,84.4c-1.7,0.7-1.9-0.9-2.5-1.7c-27.9-33.5-48.2-71.1-57.8-113.8
		c-7.6-33.8-8.1-68-2.9-102.3c3.5-22.8,9.1-45,16.7-66.7c17.1-49.1,41.7-94.3,70.1-137.6c1.9-2.8,2.9-2.5,5.2-0.5
		c27.7,24.3,43.9,55.2,51.6,90.9c6.9,32.2,6.4,64.5,2.6,97c-3.1,26.1-8.2,51.9-15.6,77.2c-5.1,17.6-10.6,35-16.4,52.4
		c-11.4,34.3-25.1,67.6-39.6,100.6C555.6,431,554.9,432.4,553.5,435.2z M558,177.2c0.7-5.1,1.4-10.3,2.1-15.4
		C558.6,166.8,557.3,171.8,558,177.2z M557.2,178c-1.2,2.5-1.4,4.3-0.8,7.1C557.5,182.6,557.8,180.7,557.2,178z"/>
        <path class="st1" d="M657.4,546.4c89.8-7.9,179-6,268,5.7c-44.1-8.3-88.6-13.5-133.5-15.6c-44.8-2.2-89.5-1.5-134.7,0.4
		c4.3-3.5,8.6-7,13-10.4c38.9-29.5,82.3-48.2,130.9-53.5c12.8-1.4,25.8-2,38.7-1.4c33.9,1.4,66.8,7.9,98.9,18.8
		c50.3,17,96.4,42.1,140.7,71.1c2.7,1.7,2.8,2.7,0.7,5.1c-24.4,27.9-55.5,44.1-91.3,51.8c-36.3,7.8-72.8,6.3-109.2,0.8
		c-69.3-10.6-134.5-34.2-198.6-61.5c-7.7-3.3-15.2-6.7-22.8-10.1C658,547.4,658,547.2,657.4,546.4z"/>
        <polygon class="st0" points="607.2,450.5 607.1,450.8 607.3,450.5 	"/>
        <path class="st0" d="M457.3,483.5c0.1,0.2,0.3,0.3,0.4,0.5C457.5,483.9,457.4,483.7,457.3,483.5
		C457.2,483.6,457.3,483.5,457.3,483.5z"/>
    </symbol>
</svg>